<svg width="56" height="56" viewBox="0 0 56 56" fill="none" xmlns="http://www.w3.org/2000/svg">
<g clip-path="url(#clip0_59_676)">
<path d="M39.8053 44.5381C38.1998 42.8502 34.964 39.4498 34.8652 39.351L35.2357 38.116L39.9906 42.6238L49.2533 33.7316L49.9943 35.0902L42.7077 42.6238L39.8053 44.5381Z" fill="#EE5E7F"/>
<path d="M37.7415 37.6232C37.3332 37.2148 36.79 36.99 36.2124 36.99C35.6348 36.99 35.0916 37.2149 34.6831 37.6232C33.84 38.4665 33.84 39.8386 34.6831 40.6818L38.6102 44.6088C39.0186 45.0171 39.5618 45.242 40.1394 45.242C40.7171 45.242 41.2602 45.0171 41.6687 44.6087L49.8668 36.4105C50.7099 35.567 50.7099 34.1951 49.8667 33.3521C49.4583 32.9437 48.9152 32.7189 48.3375 32.7189C47.7598 32.7189 47.2167 32.9438 46.8082 33.3521L40.1394 40.021L37.7415 37.6232ZM47.7488 34.2927C47.9059 34.1356 48.1151 34.0491 48.3375 34.0491C48.5601 34.0491 48.769 34.1356 48.9263 34.2927C49.2508 34.6172 49.2508 35.1454 48.9262 35.4701L40.7282 43.6682C40.571 43.8253 40.3619 43.9118 40.1394 43.9118C39.917 43.9118 39.7079 43.8253 39.5506 43.6682L35.6236 39.7413C35.299 39.4167 35.299 38.8884 35.6235 38.5639C35.7807 38.4068 35.9899 38.3201 36.2124 38.3201C36.4349 38.3201 36.6439 38.4067 36.801 38.5638L39.6691 41.4319C39.7939 41.5566 39.9629 41.6267 40.1394 41.6267C40.3158 41.6267 40.4849 41.5566 40.6095 41.4319L47.7488 34.2927Z" fill="#3B3B58"/>
<path d="M43.9141 49.9378L43.876 49.9603C43.5581 50.1444 43.4495 50.5512 43.6335 50.869C43.7568 51.0821 43.9801 51.201 44.2097 51.201C44.3227 51.201 44.4375 51.1722 44.5422 51.1113L44.5863 51.0855C44.9032 50.8998 45.0097 50.4925 44.8241 50.1755C44.6383 49.8587 44.2309 49.7524 43.9141 49.9378Z" fill="#3B3B58"/>
<path d="M50.1986 44.6173C49.8912 44.4164 49.4791 44.5028 49.278 44.8102C48.7299 45.6491 48.087 46.4523 47.3667 47.1975C46.7744 47.8102 46.1326 48.3813 45.459 48.8947C45.167 49.1174 45.1108 49.5347 45.3334 49.8269C45.4644 49.9985 45.6625 50.0887 45.8628 50.0887C46.0034 50.0887 46.1452 50.0443 46.2656 49.9525C46.9921 49.3985 47.6843 48.7826 48.3229 48.122C49.1017 47.3165 49.7976 46.4471 50.3915 45.5378C50.5925 45.2303 50.506 44.8182 50.1986 44.6173Z" fill="#3B3B58"/>
<path d="M37.3513 52.6278C27.7609 43.1428 35.5674 30.2326 40.6694 24.9632L39.6526 25.2102L36.5485 27.1862L31.0365 28.5764L29.4307 29.3794V33.8554V39.66L31.1968 45.6499L35.544 51.578L37.3513 52.6278Z" fill="#EE5E7F"/>
<path d="M25.6135 0.874939H26.7684C41.1254 1.20766 52.4293 13.1205 51.9324 27.4946C51.9318 27.5076 51.9361 27.5204 51.9446 27.5304C51.9531 27.5405 51.9651 27.5471 51.9782 27.549C52.7183 27.6471 53.8967 27.7036 54.432 28.0459C55.0111 28.4159 55.0975 28.9555 55.0975 29.6636C55.0953 32.2863 55.0957 34.9093 55.0985 37.5327C55.0993 38.518 55.0843 39.2286 55.0537 39.6644C54.8021 43.1949 53.5807 46.3611 51.3896 49.1629C51.0899 49.5457 50.7359 49.8411 50.2688 49.6214C49.8948 49.4451 49.7359 49.1753 49.7921 48.812C49.8184 48.6414 49.93 48.431 50.127 48.1807C52.0849 45.6846 53.1914 42.8636 53.4467 39.7177C53.4822 39.2748 53.4996 38.5646 53.4989 37.587C53.4961 34.8613 53.4957 32.1427 53.4979 29.4312C53.498 29.4165 53.4927 29.4024 53.4831 29.3914C53.4735 29.3804 53.4601 29.3733 53.4456 29.3714C52.5385 29.247 51.6331 29.107 50.7295 28.9513C47.3522 28.3701 44.6147 26.9816 41.9444 24.8712C41.8853 24.8246 41.8125 24.7989 41.7373 24.7984C41.6622 24.7978 41.5891 24.8223 41.5296 24.868C41.1563 25.1545 40.7696 25.4424 40.3693 25.7318C37.896 27.5212 35.1447 28.6342 32.1154 29.0707C31.4144 29.1717 30.7162 29.2712 30.0209 29.3693C29.9875 29.3736 29.9708 29.3928 29.9708 29.4269C29.9673 32.4093 29.9626 35.3956 29.9569 38.3858C29.9452 44.0409 32.9024 49.1938 37.7897 51.9857C38.9137 52.6276 40.3864 53.2184 41.6949 53.7847C41.708 53.7904 41.7222 53.7933 41.7365 53.7933C41.7508 53.7933 41.7649 53.7904 41.7781 53.7847C43.8544 52.8868 45.8464 52.0806 47.6433 50.659C48.3109 50.1301 49.2674 50.8574 48.8665 51.6263C48.8039 51.7471 48.6763 51.8822 48.4836 52.0315C46.4809 53.5853 44.1764 54.5237 41.8548 55.4749H41.6C38.7825 54.2955 36.8737 53.5245 34.8507 51.911C34.5372 51.6615 34.2265 51.4077 33.9186 51.1496C33.8902 51.1261 33.8582 51.1197 33.8227 51.1304C22.4558 54.5664 10.4534 49.9979 4.25549 39.8787C0.674499 34.0306 -0.371646 26.6649 1.38792 20.0532C1.66946 18.9921 3.18375 19.3142 2.93101 20.468C2.8649 20.7702 2.7938 21.0691 2.71773 21.3649C2.7162 21.3704 2.71621 21.3762 2.71777 21.3816C2.71933 21.3871 2.72237 21.3921 2.72657 21.3959C2.73076 21.3998 2.73594 21.4024 2.74153 21.4035C2.74712 21.4046 2.75291 21.4042 2.75826 21.4022C4.42043 20.8199 6.11317 20.3479 7.83648 19.986C7.85895 19.9814 7.87943 19.97 7.89509 19.9534C7.91075 19.9368 7.92083 19.9157 7.92393 19.8932C8.27158 17.4867 8.82789 15.1299 9.59285 12.823C9.59398 12.8191 9.59398 12.815 9.59287 12.8111C9.59175 12.8072 9.58956 12.8037 9.58654 12.8011C9.58353 12.7984 9.57982 12.7966 9.57584 12.796C9.57186 12.7953 9.56777 12.7958 9.56406 12.7974C7.9026 13.5566 6.33463 14.4755 4.86014 15.554C4.81249 15.5891 4.77412 15.6344 4.74817 15.6863C4.542 16.0958 4.34471 16.5141 4.15632 16.9414C4.04257 17.1981 3.93415 17.3715 3.83106 17.4618C3.47275 17.7753 2.92035 17.6794 2.66015 17.2955C2.46713 17.0118 2.50019 16.7217 2.64308 16.3975C6.73275 7.13474 15.4698 1.18526 25.6135 0.874939ZM31.1311 8.01666C31.1343 8.01712 31.1376 8.01676 31.1406 8.0156C31.1437 8.01445 31.1464 8.01253 31.1486 8.01002C31.1508 8.00751 31.1524 8.00448 31.1532 8.00118C31.1541 7.99788 31.1542 7.99441 31.1535 7.99107C30.7667 6.20164 30.2456 4.45238 29.5901 2.74328C29.5856 2.73132 29.5779 2.72083 29.5679 2.71293C29.558 2.70504 29.5461 2.70005 29.5336 2.69849C27.3446 2.40132 25.156 2.40168 22.9677 2.69956C22.9555 2.70117 22.944 2.7061 22.9344 2.71381C22.9248 2.72152 22.9175 2.73171 22.9133 2.74328C22.2571 4.45238 21.736 6.20199 21.35 7.99213C21.3493 7.99531 21.3493 7.99862 21.3502 8.00177C21.351 8.00492 21.3526 8.00782 21.3548 8.01023C21.357 8.01264 21.3597 8.01448 21.3628 8.0156C21.3659 8.01672 21.3691 8.01708 21.3724 8.01666C24.6249 7.67399 27.8778 7.67399 31.1311 8.01666ZM20.9714 3.05681C19.0697 3.48479 17.2461 4.1321 15.5007 4.99873C15.3586 5.06983 15.2409 5.16936 15.1478 5.29733C14.1041 6.73911 13.2126 8.26975 12.4732 9.88927C12.4715 9.89265 12.4709 9.89643 12.4714 9.90016C12.472 9.90388 12.4736 9.90738 12.4763 9.91021C12.4789 9.91305 12.4823 9.9151 12.4861 9.91612C12.4899 9.91714 12.494 9.91707 12.4977 9.91593C14.8118 9.14812 17.1761 8.5911 19.5904 8.24487C19.6077 8.24239 19.6238 8.23463 19.6365 8.22262C19.6493 8.21061 19.6581 8.19493 19.6619 8.17769C20.0216 6.4494 20.4937 4.75275 21.0781 3.08773C21.0798 3.08267 21.0805 3.07733 21.0802 3.07201C21.0799 3.0667 21.0786 3.06151 21.0763 3.05675C21.074 3.05199 21.0708 3.04776 21.0669 3.04429C21.063 3.04082 21.0585 3.03819 21.0535 3.03654C21.0407 3.03228 21.0272 3.03334 21.013 3.03974C20.9917 3.0497 20.9778 3.05538 20.9714 3.05681ZM37.023 5.003C35.2698 4.11361 33.3758 3.45884 31.4467 3.03441C31.4425 3.03363 31.4382 3.03396 31.4341 3.03537C31.4301 3.03678 31.4265 3.03922 31.4237 3.04246C31.4209 3.04569 31.419 3.04961 31.4181 3.05381C31.4173 3.05801 31.4176 3.06235 31.419 3.0664C32.0048 4.73355 32.4779 6.43269 32.8384 8.16383C32.8427 8.18411 32.8532 8.20256 32.8682 8.21667C32.8833 8.23078 32.9023 8.23988 32.9226 8.24274C35.3256 8.59181 37.6795 9.14705 39.9844 9.90847C39.9892 9.90991 39.9944 9.90993 39.9993 9.90853C40.0042 9.90712 40.0086 9.90435 40.0119 9.90054C40.0153 9.89673 40.0175 9.89204 40.0183 9.88702C40.0191 9.882 40.0184 9.87686 40.0164 9.87221C39.2791 8.25625 38.3897 6.72631 37.3482 5.2824C37.2615 5.16296 37.1531 5.06983 37.023 5.003ZM12.0435 7.10169C10.0173 8.57972 8.26447 10.3322 6.78501 12.3591C6.73169 12.4316 6.74448 12.4462 6.8234 12.4028C7.95805 11.7701 9.12755 11.2098 10.3319 10.7221C10.3474 10.716 10.3615 10.7069 10.3734 10.6951C10.3853 10.6834 10.3948 10.6694 10.4012 10.6539C10.8896 9.44742 11.4505 8.27544 12.084 7.13794C12.1238 7.06543 12.1103 7.05334 12.0435 7.10169ZM42.1662 10.7211C43.4214 11.234 44.4729 11.7406 45.6768 12.3964C45.7501 12.4369 45.7622 12.4234 45.7131 12.3559C44.2425 10.3318 42.4286 8.54667 40.4589 7.10275C40.3949 7.05583 40.3814 7.06756 40.4184 7.13794C41.0028 8.23421 41.5243 9.26009 42.0948 10.6496C42.1012 10.6655 42.1109 10.68 42.1231 10.6923C42.1354 10.7045 42.15 10.7143 42.1662 10.7211ZM20.981 9.69732C20.4485 12.5766 20.0721 15.4765 19.8517 18.3971C19.8496 18.4227 19.8609 18.4347 19.8858 18.4333C24.1294 18.1909 28.373 18.1909 32.6166 18.4333C32.6422 18.4347 32.6539 18.4227 32.6518 18.3971C32.4314 15.4858 32.0567 12.5947 31.5278 9.72398C31.5247 9.70758 31.5165 9.69262 31.5044 9.68129C31.4923 9.66996 31.4769 9.66287 31.4606 9.66106C27.9791 9.25725 24.4973 9.25831 21.0151 9.66426C20.9959 9.6671 20.9846 9.67812 20.981 9.69732ZM11.5913 11.9752C10.6497 14.4204 9.98742 17.0075 9.58646 19.6C9.58592 19.6036 9.58623 19.6073 9.58738 19.6108C9.58853 19.6143 9.59048 19.6174 9.59307 19.62C9.59566 19.6226 9.59883 19.6245 9.60231 19.6257C9.60579 19.6268 9.60949 19.6272 9.61312 19.6266C12.4483 19.119 15.302 18.7618 18.1742 18.5549C18.1895 18.5541 18.204 18.5477 18.2148 18.5369C18.2257 18.526 18.2321 18.5115 18.2329 18.4962C18.4383 15.6262 18.7949 12.775 19.3025 9.94259C19.3075 9.91629 19.2964 9.90527 19.2694 9.90953C16.6631 10.3148 14.1258 10.9816 11.6574 11.9101C11.6424 11.9155 11.6287 11.9241 11.6173 11.9353C11.6058 11.9465 11.597 11.9601 11.5913 11.9752ZM40.8364 11.9048C38.3517 11.0186 35.8947 10.3254 33.2628 9.91166C33.255 9.91037 33.2469 9.91097 33.2393 9.91341C33.2318 9.91585 33.2249 9.92005 33.2192 9.92568C33.2136 9.93131 33.2094 9.9382 33.207 9.94577C33.2045 9.95335 33.2039 9.9614 33.2052 9.96925C33.7079 12.7846 34.0623 15.6184 34.2684 18.4706C34.2702 18.4931 34.2798 18.5142 34.2957 18.5301C34.3116 18.546 34.3325 18.5555 34.3548 18.557C37.2064 18.7618 40.0391 19.1162 42.853 19.6202C42.8957 19.6273 42.9134 19.6096 42.9063 19.5669C42.4968 16.9684 41.8307 14.4378 40.9079 11.9752C40.9019 11.9591 40.8924 11.9445 40.8801 11.9324C40.8677 11.9202 40.8528 11.9108 40.8364 11.9048ZM47.5431 15.4826C46.1631 14.4769 44.5902 13.5204 42.9554 12.8027C42.9099 12.7828 42.8949 12.7963 42.9106 12.8432C43.672 15.1459 44.2276 17.4977 44.5774 19.8986C44.5805 19.9201 44.5903 19.9402 44.6053 19.956C44.6204 19.9719 44.6401 19.9827 44.6616 19.9871C46.3871 20.3454 48.0809 20.8171 49.743 21.4022C49.7486 21.4043 49.7547 21.4048 49.7606 21.4037C49.7664 21.4026 49.7719 21.4 49.7764 21.396C49.7808 21.3921 49.7842 21.387 49.786 21.3814C49.7878 21.3757 49.7881 21.3696 49.7868 21.3638C49.3645 19.445 48.7157 17.6022 47.8406 15.8356C47.7702 15.6934 47.671 15.5757 47.5431 15.4826ZM28.3744 29.2968C28.3755 28.7423 28.6645 28.2293 29.1465 27.9734C29.3135 27.8852 29.6271 27.8099 30.087 27.7473C31.034 27.6193 31.9785 27.4775 32.9205 27.3218C32.9346 27.3194 32.9474 27.3122 32.9567 27.3015C32.9661 27.2908 32.9714 27.2772 32.9717 27.2632C32.9887 24.8645 32.9233 22.4679 32.7755 20.0735C32.7752 20.0673 32.7726 20.0615 32.7683 20.0571C32.764 20.0528 32.7581 20.0503 32.752 20.05C28.4181 19.7848 24.0846 19.7848 19.7514 20.05C19.7452 20.0502 19.7392 20.0527 19.7347 20.0571C19.7302 20.0614 19.7274 20.0672 19.7269 20.0735C19.4624 24.4002 19.4621 28.7266 19.7258 33.0527C19.7264 33.065 19.7315 33.0766 19.7402 33.0853C19.7489 33.094 19.7605 33.0991 19.7728 33.0996C22.6229 33.2738 25.4756 33.3328 28.3307 33.2766C28.3412 33.2763 28.3513 33.2721 28.3586 33.2647C28.366 33.2573 28.3701 33.2475 28.3701 33.2372C28.3687 31.9283 28.3701 30.6149 28.3744 29.2968ZM18.074 20.1726C15.1606 20.3951 12.2674 20.7709 9.3945 21.2998C9.3618 21.3055 9.34367 21.3247 9.34012 21.3574C8.93488 24.8389 8.93524 28.32 9.34118 31.8007C9.34277 31.8118 9.34775 31.8221 9.35541 31.8302C9.36306 31.8382 9.37301 31.8436 9.38384 31.8455C12.2567 32.3744 15.1499 32.7498 18.0633 32.9716C18.0974 32.9745 18.1134 32.9588 18.1113 32.9247C17.8682 28.6861 17.8682 24.4478 18.1113 20.2099C18.1127 20.1829 18.1003 20.1705 18.074 20.1726ZM41.1574 23.2887C42.0009 23.0146 42.7026 23.375 43.3403 23.9328C43.3452 23.9372 43.3513 23.94 43.3578 23.9409C43.3643 23.9417 43.3709 23.9406 43.3767 23.9376C43.3825 23.9345 43.3873 23.9298 43.3903 23.924C43.3933 23.9182 43.3945 23.9116 43.3937 23.905L43.1729 21.3798C43.1711 21.3593 43.1627 21.3399 43.1488 21.3247C43.1349 21.3095 43.1164 21.2992 43.0961 21.2956C40.2303 20.7673 37.3447 20.3937 34.4391 20.1748C34.4056 20.1726 34.39 20.1879 34.3921 20.2206C34.5201 22.4245 34.5802 24.6302 34.5724 26.8377C34.5724 26.8697 34.5876 26.8807 34.6182 26.8707C36.6529 26.2287 38.4103 25.2413 40.1006 23.9509C40.5862 23.5805 40.9384 23.3598 41.1574 23.2887ZM2.7284 23.1202C2.6182 23.1614 2.51512 23.2034 2.41914 23.246C2.40768 23.2513 2.3977 23.2593 2.39008 23.2693C2.38245 23.2794 2.37742 23.2911 2.37542 23.3036C2.07896 25.4876 2.07931 27.6712 2.37648 29.8545C2.37811 29.8674 2.38322 29.8797 2.39129 29.89C2.39935 29.9003 2.41008 29.9083 2.42234 29.9132C4.13143 30.5658 5.88069 31.0862 7.67012 31.4744C7.67331 31.4751 7.67661 31.475 7.67976 31.4742C7.68291 31.4734 7.68581 31.4718 7.68822 31.4696C7.69063 31.4674 7.69247 31.4646 7.69359 31.4616C7.69471 31.4585 7.69507 31.4552 7.69465 31.452C7.35269 28.2116 7.35162 24.9707 7.69145 21.7296C7.6921 21.7229 7.69116 21.7162 7.68873 21.71C7.6863 21.7037 7.68244 21.6982 7.67746 21.6937C7.67247 21.6892 7.66651 21.686 7.66005 21.6843C7.65359 21.6825 7.64681 21.6824 7.64026 21.6837C5.94966 22.0435 4.31237 22.5223 2.7284 23.1202ZM50.2954 27.2568C50.3012 27.2579 50.3071 27.2577 50.3128 27.2564C50.3185 27.255 50.3238 27.2525 50.3283 27.2489C50.3329 27.2454 50.3366 27.2409 50.3392 27.2358C50.3418 27.2307 50.3433 27.2251 50.3434 27.2194C50.3747 25.9142 50.304 24.6149 50.1312 23.3217C50.1255 23.2748 50.1007 23.2432 50.0566 23.2268C48.3674 22.5763 46.638 22.0602 44.8685 21.6784C44.8408 21.6727 44.8276 21.6841 44.829 21.7125L45.0647 25.1208C45.065 25.1263 45.0668 25.1318 45.0697 25.1366C45.0727 25.1415 45.0768 25.1455 45.0818 25.1485C46.702 26.1424 48.4399 26.8451 50.2954 27.2568ZM9.51821 40.3352C9.57935 40.3636 9.59961 40.3458 9.57899 40.2818C8.81687 37.9763 8.2634 35.6217 7.9186 33.218C7.91705 33.2062 7.91182 33.1951 7.9036 33.1863C7.89539 33.1775 7.88461 33.1714 7.87274 33.1689C6.13734 32.8049 4.43287 32.3304 2.75932 31.7453C2.75359 31.7432 2.74741 31.7428 2.74142 31.7439C2.73544 31.7451 2.72988 31.7478 2.72531 31.7518C2.72074 31.7558 2.71733 31.761 2.71543 31.7668C2.71354 31.7726 2.71323 31.7788 2.71453 31.7847C3.14252 33.7121 3.79267 35.5552 4.66499 37.314C4.73537 37.4548 4.83419 37.5718 4.96145 37.6649C6.35062 38.6737 7.86954 39.5638 9.51821 40.3352ZM11.65 41.2299C14.0654 42.1928 16.7122 42.838 19.2726 43.2411C19.2768 43.2417 19.281 43.2413 19.2849 43.2399C19.2889 43.2385 19.2925 43.2362 19.2954 43.2332C19.2983 43.2302 19.3005 43.2266 19.3017 43.2226C19.3029 43.2186 19.3032 43.2143 19.3025 43.2102C18.7977 40.3856 18.4419 37.5423 18.235 34.68C18.2335 34.657 18.2238 34.6354 18.2078 34.6191C18.1917 34.6028 18.1703 34.593 18.1476 34.5915C15.2882 34.3846 12.448 34.0284 9.62698 33.523C9.62155 33.5221 9.61599 33.5225 9.61075 33.5241C9.6055 33.5258 9.60072 33.5287 9.59678 33.5325C9.59284 33.5363 9.58985 33.541 9.58806 33.5462C9.58627 33.5514 9.58572 33.557 9.58646 33.5624C9.99311 36.1645 10.6593 38.6982 11.5849 41.1638C11.597 41.1958 11.6187 41.2178 11.65 41.2299ZM29.1529 43.6549C28.6026 41.8665 28.3904 40.2104 28.3744 38.2791C28.3644 37.1615 28.3641 36.0429 28.3733 34.9232C28.3733 34.9169 28.3721 34.9107 28.3697 34.905C28.3672 34.8992 28.3637 34.894 28.3592 34.8896C28.3547 34.8852 28.3494 34.8818 28.3436 34.8795C28.3378 34.8772 28.3316 34.8761 28.3253 34.8762C25.5107 34.9303 22.6983 34.8759 19.8879 34.7131C19.8616 34.7117 19.8496 34.7245 19.8517 34.7515C20.0721 37.6649 20.4471 40.5584 20.9767 43.432C20.9792 43.4455 20.9859 43.4579 20.9958 43.4673C21.0058 43.4767 21.0186 43.4827 21.0322 43.4843C23.7238 43.7999 26.4218 43.8696 29.1262 43.6933C29.1307 43.693 29.1351 43.6917 29.139 43.6895C29.1429 43.6873 29.1462 43.6842 29.1488 43.6805C29.1514 43.6768 29.1531 43.6726 29.1538 43.6682C29.1545 43.6637 29.1542 43.6592 29.1529 43.6549ZM12.0797 46.0021C11.4491 44.8702 10.8907 43.7039 10.4044 42.5032C10.397 42.4849 10.386 42.4684 10.3721 42.4544C10.3582 42.4405 10.3416 42.4295 10.3233 42.4221C9.12328 41.9351 7.95734 41.3767 6.82553 40.7468C6.75088 40.7056 6.7388 40.7191 6.78927 40.7873C8.27087 42.8057 10.0212 44.5556 12.0403 46.0372C12.1064 46.0856 12.1195 46.0739 12.0797 46.0021ZM15.5039 48.1551C17.303 49.0114 19.0945 49.6822 21.0418 50.1098C21.0476 50.1112 21.0537 50.1109 21.0593 50.1091C21.065 50.1073 21.0701 50.1039 21.074 50.0994C21.078 50.095 21.0806 50.0895 21.0817 50.0836C21.0828 50.0778 21.0823 50.0717 21.0802 50.0661C20.4958 48.4011 20.0234 46.7048 19.6629 44.9772C19.6588 44.9581 19.6489 44.9407 19.6346 44.9274C19.6203 44.9141 19.6023 44.9054 19.5829 44.9026C17.1729 44.5556 14.8126 43.9993 12.502 43.2337C12.498 43.2326 12.4938 43.2326 12.4898 43.2338C12.4858 43.235 12.4822 43.2373 12.4795 43.2404C12.4767 43.2435 12.4749 43.2473 12.4741 43.2514C12.4734 43.2554 12.4738 43.2597 12.4754 43.2635C13.2183 44.8894 14.1148 46.4265 15.1648 47.8747C15.253 47.9962 15.366 48.0897 15.5039 48.1551ZM21.3542 45.1809C21.7382 46.9483 22.2529 48.6766 22.8984 50.3658C22.9183 50.4184 22.9556 50.4483 23.0104 50.4554C25.178 50.7454 27.3453 50.7444 29.5123 50.4522C29.5492 50.4472 29.5745 50.4273 29.588 50.3924C30.0032 49.341 30.3583 48.2692 30.6533 47.1772C30.6626 47.1431 30.6594 47.1104 30.6437 47.0791L29.7362 45.2886C29.7311 45.2785 29.7231 45.2702 29.713 45.2647C29.7029 45.2592 29.6913 45.2568 29.6797 45.2577C26.9156 45.4667 24.1553 45.4248 21.399 45.1319C21.3925 45.1312 21.3859 45.1321 21.3798 45.1345C21.3737 45.1368 21.3682 45.1405 21.3639 45.1453C21.3595 45.1501 21.3563 45.1558 21.3547 45.162C21.353 45.1682 21.3529 45.1747 21.3542 45.1809ZM31.8658 48.9037C31.8621 48.899 31.8571 48.8954 31.8515 48.8932C31.8458 48.8911 31.8397 48.8906 31.8338 48.8917C31.8279 48.8928 31.8223 48.8955 31.8178 48.8995C31.8133 48.9035 31.81 48.9086 31.8082 48.9144L31.4222 50.0704C31.4203 50.076 31.4199 50.0821 31.4212 50.0879C31.4224 50.0937 31.4252 50.0991 31.4292 50.1035C31.4333 50.1078 31.4384 50.111 31.4441 50.1127C31.4498 50.1144 31.4559 50.1145 31.4616 50.113L32.5686 49.8411C32.5741 49.8399 32.5792 49.8372 32.5834 49.8334C32.5876 49.8297 32.5907 49.8249 32.5925 49.8195C32.5944 49.8142 32.5948 49.8084 32.5938 49.8029C32.5927 49.7973 32.5903 49.7921 32.5867 49.7878L31.8658 48.9037Z" fill="#3B3B58"/>
</g>
<defs>
<clipPath id="clip0_59_676">
<rect width="54.6" height="54.6" fill="white" transform="translate(0.524414 0.874939)"/>
</clipPath>
</defs>
</svg>
