<svg width="55" height="56" viewBox="0 0 55 56" fill="none" xmlns="http://www.w3.org/2000/svg">
<path opacity="0.99" d="M13.6083 32.9276C13.1184 32.4378 12.3302 32.4378 11.8404 32.9276L9.70312 35.065L20.5795 45.9419L22.7167 43.8045C23.2066 43.3146 23.2066 42.5264 22.7167 42.0365L13.6083 32.9276Z" fill="#EE5E7F"/>
<path opacity="0.99" d="M9.12959 34.4915L4.99902 38.601C4.40918 39.1877 4.40918 40.1315 4.99902 40.7183L15.0493 50.717C15.6391 51.3038 16.5884 51.3038 17.1783 50.717L21.277 46.6394L9.12959 34.4915Z" fill="#EE5E7F"/>
<path opacity="0.99" d="M30.4032 10.2924H38.5966C39.433 10.2924 40.1063 10.9657 40.1063 11.8021C40.1063 12.6384 39.433 13.3117 38.5966 13.3117H30.4032C29.5669 13.3117 28.8936 12.6384 28.8936 11.8021C28.8936 10.9657 29.5669 10.2924 30.4032 10.2924Z" fill="#EE5E7F"/>
<path d="M28.5278 5.19476L31.0773 10.2919H37.9224L40.4718 5.19476H28.5278Z" fill="#EE5E7F"/>
<path opacity="0.99" d="M28.5148 4.34449C27.8813 4.34577 27.4701 5.01257 27.7533 5.57921L29.7345 9.54499C28.7554 9.83419 28.0232 10.7359 28.0232 11.8011C28.0232 12.2783 28.1707 12.7241 28.4198 13.0975C25.3375 15.6778 22.9336 20.2922 22.4245 26.3995C22.3871 26.8688 22.7368 27.2796 23.206 27.3177C23.6729 27.3562 24.0834 27.011 24.1258 26.5445C24.6274 20.5273 27.1198 16.2672 29.9262 14.144C32.9595 14.1884 36.0243 14.1437 39.0726 14.1514C41.5592 16.072 43.8097 19.9489 44.6116 24.7682C44.6905 25.2323 45.1305 25.5447 45.5947 25.4664C46.0607 25.3906 46.3767 24.9507 46.2995 24.4849C45.4818 19.57 43.3146 15.4596 40.5508 13.0975C40.7999 12.7241 40.9474 12.2782 40.9474 11.8011C40.9474 10.7358 40.2152 9.83413 39.2361 9.54492L41.2173 5.57915C41.5006 5.01251 41.0893 4.34569 40.4558 4.34442L28.5148 4.34449ZM29.8945 6.0441H39.0758L37.3828 9.43834H31.5874L29.8945 6.0441ZM30.3533 11.1318L38.5792 11.1463C38.9577 11.147 39.2407 11.4227 39.2407 11.8012C39.2407 12.1413 39.0052 12.3873 38.6842 12.4361L30.3477 12.4525C29.933 12.4525 29.7275 12.1359 29.7275 11.7839C29.7417 11.4225 29.9881 11.132 30.3533 11.132V11.1318ZM33.6353 17.2299V17.8048C33.4622 17.864 33.2909 17.9345 33.1304 18.0297C32.3993 18.4637 31.9225 19.2113 31.8407 20.0576C31.7589 20.9039 32.0849 21.7359 32.7222 22.2988C33.1794 22.7026 33.7038 22.8892 34.3469 23.1212C35.1169 23.4204 35.4335 23.7334 35.4299 24.2633C35.4412 24.5424 35.2058 24.8442 34.9634 24.9882C34.7208 25.1322 34.3575 25.1607 34.1002 25.0515C33.8429 24.9423 33.6159 24.6668 33.5537 24.3967C33.4494 23.9369 32.992 23.6488 32.5322 23.7535C32.0731 23.8585 31.7859 24.3157 31.8907 24.7749C32.0815 25.6035 32.6511 26.2872 33.4337 26.6195C33.4991 26.6472 33.5685 26.6555 33.6353 26.6778V27.256C33.6336 27.7272 34.014 28.1107 34.4851 28.1125C34.9563 28.1106 35.3368 27.7272 35.3349 27.256V26.6795C35.508 26.6203 35.6794 26.5514 35.8398 26.4562C36.5709 26.0222 37.0478 25.2746 37.1295 24.4283C37.2113 23.582 36.8853 22.755 36.2481 22.1921C36.0035 21.9761 35.6619 21.7856 34.9747 21.5367C34.2875 21.2879 34.0191 21.1654 33.8553 21.0207C33.6469 20.8367 33.5136 20.4978 33.5403 20.2209C33.5671 19.944 33.7644 19.64 34.0069 19.4961C34.2494 19.3521 34.6128 19.3302 34.87 19.4394C35.1273 19.5486 35.3544 19.8242 35.4166 20.0943C35.5239 20.5514 35.9804 20.8358 36.438 20.7308C36.8963 20.6257 37.1833 20.1696 37.0795 19.711C36.8888 18.8824 36.3192 18.197 35.5365 17.8648C35.4712 17.837 35.4017 17.8287 35.3349 17.8064V17.2299C35.3341 16.7607 34.9543 16.3802 34.4851 16.3803C34.0159 16.3803 33.6362 16.7607 33.6353 17.2299L33.6353 17.2299ZM47.7105 25.718L40.6187 31.1585C40.1009 30.2755 39.1504 29.6729 38.056 29.6805L31.2225 29.7238C29.735 29.7423 27.2271 28.5093 24.1874 28.3391C21.3143 28.1782 17.9659 28.9713 14.5446 32.6765L14.193 32.3249C13.234 31.3659 12.015 31.5302 11.2204 32.3249L9.68069 33.8645C9.30167 33.5139 8.84593 33.5545 8.51262 33.8878L4.38188 37.9936C3.46776 38.9029 3.46775 40.4152 4.38188 41.3245L14.433 51.3189C15.3473 52.2284 16.8496 52.2285 17.7639 51.3189L21.8646 47.2448C22.3339 46.7755 22.1418 46.3122 21.7696 45.9401L23.306 44.4038C24.0698 43.6399 24.1067 42.4122 23.4359 41.5911C23.9694 40.9683 25.1454 39.9599 27.2167 40.0148C30.9828 40.1146 33.9747 40.3123 36.3747 40.2098C38.7747 40.1072 40.6762 39.696 41.9984 38.3768C45.8927 34.4915 50.6331 29.7804 50.6331 29.7804C51.3031 29.1078 51.4437 28.7844 51.5738 28.2981C51.7412 27.721 51.6474 27.0299 51.268 26.4428C50.8928 25.8622 50.2915 25.4579 49.6434 25.3098C48.9469 25.1251 48.2869 25.2985 47.7105 25.718L47.7105 25.718ZM49.8102 28.3009C49.8102 28.3009 44.6764 33.2899 40.7887 37.1688C39.9274 38.0281 38.5402 38.4144 36.2997 38.5102C34.0591 38.6059 31.0635 38.4092 27.2617 38.3085C24.7344 38.2416 23.1009 39.5092 22.2661 40.3931L15.7626 33.8929C22.2198 26.7873 26.8469 31.4866 31.2425 31.4317L38.0693 31.3868C38.7814 31.3818 39.3273 31.932 39.3273 32.6465C39.3273 33.3609 38.7819 33.9129 38.0626 33.9129H29.4145C28.9434 33.9147 28.5629 34.2981 28.5647 34.7693C28.5664 35.2379 28.946 35.6173 29.4145 35.6191H38.0626C39.5678 35.6191 40.8097 34.4764 40.9969 33.0197L48.7502 27.0727C49.115 26.7964 49.5375 26.9679 49.7846 27.2622C50.0316 27.5565 50.1064 28.0047 49.81 28.3009H49.8102ZM12.99 33.5279L22.0979 42.6409C22.2642 42.8072 22.2642 43.0345 22.0979 43.2008L20.5666 44.7388L10.8938 35.0643L12.4301 33.5279C12.6469 33.3111 12.9026 33.4406 12.99 33.5279ZM9.11081 35.6941L20.042 46.6497L16.5608 50.1109C16.2954 50.3749 15.9014 50.3749 15.636 50.1109L5.58494 40.1148C5.31938 39.8506 5.31938 39.4658 5.58494 39.2017L9.11081 35.6941ZM15.7293 46.565C15.4372 46.9698 15.529 47.5349 15.9343 47.8264C16.3388 48.1173 16.9026 48.0256 17.194 47.6214C17.4853 47.2173 17.3944 46.6537 16.9907 46.3617C16.5287 46.0661 16.0328 46.1587 15.7293 46.565L15.7293 46.565Z" fill="#424241"/>
</svg>
