<svg width="55" height="56" viewBox="0 0 55 56" fill="none" xmlns="http://www.w3.org/2000/svg">
<path d="M53.3991 10.3684C48.9662 10.998 44.5755 10.8783 40.1028 10.69C39.9046 10.4828 39.7329 10.3788 39.5877 10.378C38.5477 10.3773 37.513 10.3736 36.4834 10.3669C33.7498 9.94903 29.2226 9.0565 28.452 5.57328L28.4604 4.20161L28.696 3.2099C29.0952 2.54802 29.6896 2.21708 30.479 2.21708C37.5545 2.21188 44.6303 2.2104 51.7065 2.21263C52.4541 2.21263 53.2194 2.80542 53.4518 3.57873C53.5105 3.7741 53.5398 4.12918 53.5398 4.64397C53.5384 6.38744 53.5408 8.13054 53.5471 9.87326C53.5471 9.9052 53.4194 10.3476 53.3991 10.3684Z" fill="#EE5E7F"/>
<path d="M32.6033 23.327C32.5206 22.9671 32.173 22.8735 31.8662 22.8724C31.3344 22.8694 30.8022 22.8575 30.2696 22.8367C28.5693 22.7699 27.092 21.4829 27.0899 19.5953C27.085 14.3582 27.0903 9.12113 27.1056 3.88404C27.1063 3.65747 27.1569 3.3945 27.2574 3.09513C27.7296 1.68334 29.0771 0.878839 30.4528 0.877725C37.5109 0.87401 44.5693 0.87401 51.628 0.877725C53.3827 0.878839 54.8977 2.2806 54.8977 4.24618C54.8991 9.2151 54.8998 14.184 54.8998 19.1529C54.8998 19.7212 54.8649 20.1424 54.7951 20.4165C54.4988 21.5832 53.5126 22.5036 52.4352 22.7665C52.1686 22.8319 51.4877 22.8646 50.3926 22.8646C46.992 22.8638 43.591 22.8642 40.1897 22.8657C39.8306 22.8657 39.6998 23.0618 39.415 23.3805C38.7072 24.1709 38.0009 24.9628 37.2959 25.7561C36.6851 26.444 36.2419 26.8604 35.9662 27.0052C34.9297 27.549 33.4734 26.9718 33.1561 25.6659C32.967 24.8874 32.7827 24.1077 32.6033 23.327ZM28.696 3.2099C28.5187 3.52115 28.4402 3.85172 28.4604 4.20161L28.452 5.57328C28.4472 10.1165 28.4461 14.655 28.4489 19.1886C28.4489 20.0867 28.5651 20.6472 29.2341 21.1419C29.5894 21.4056 29.9168 21.5364 30.2162 21.5341C31.572 21.523 33.0127 21.3079 33.6849 22.4612C34.0607 23.1053 34.2408 24.3967 34.4293 25.277C34.5507 25.8464 35.2145 26.0681 35.5747 25.6592C36.5756 24.5249 37.5786 23.392 38.5837 22.2606C39.015 21.7763 39.5853 21.5341 40.2944 21.5341C44.0719 21.5341 47.8498 21.5267 51.628 21.5119C52.4279 21.5085 53.1482 21.045 53.4288 20.2472C53.5014 20.0406 53.538 19.7312 53.5387 19.319C53.5394 16.2072 53.5398 13.0957 53.5398 9.98469C53.5398 9.96612 53.5321 9.95535 53.5167 9.95238C53.537 9.93158 53.5471 9.9052 53.5471 9.87326C53.5408 8.13054 53.5384 6.38744 53.5398 4.64397C53.5398 4.12918 53.5105 3.7741 53.4518 3.57873C53.2194 2.80542 52.4541 2.21263 51.7065 2.21263C44.6303 2.2104 37.5545 2.21188 30.479 2.21708C29.6896 2.21708 29.0952 2.54802 28.696 3.2099Z" fill="#3B3B58"/>
<path d="M25.3017 50.6602C26.2628 51.2604 27.2529 51.8201 28.272 52.3394C32.0934 54.2882 36.5295 53.379 39.528 50.1743C40.1479 49.5125 40.7659 48.8487 41.3822 48.1831C41.4493 48.1118 41.4775 48.0126 41.5225 47.9291C41.6377 47.8043 41.6883 47.6576 41.6744 47.4889C41.6869 47.2453 41.5993 47.0224 41.4116 46.8204C39.2939 44.545 36.7092 41.7894 33.6576 38.5536C33.1886 38.0566 32.7286 38.0484 32.2777 38.5291C31.1564 39.7258 30.0466 40.9381 28.8844 42.0914C27.9149 43.053 26.7716 43.443 25.4357 43.1867C24.6452 43.0096 24.2118 42.6842 23.3951 42.117C22.3181 41.369 21.3385 40.6012 20.4563 39.8138C19.6291 39.0762 20.3893 37.6276 21.386 38.0209C21.536 38.0804 21.7912 38.2609 22.1513 38.5625C23.0769 39.3373 24.0366 40.0612 25.0305 40.7342C26.0974 41.4563 26.9203 41.2401 27.7746 40.3375C28.7665 39.2894 29.7559 38.239 30.7428 37.1864C31.1079 36.7971 31.4192 36.5352 31.6767 36.4008C32.4766 35.9863 33.4755 35.9841 34.2617 36.4275C34.5067 36.5657 34.8463 36.8654 35.2804 37.3268C37.7939 40.001 40.3066 42.676 42.8187 45.3518C43.6657 46.2532 43.8845 47.5569 43.4123 48.6968C43.2825 49.011 43.0243 49.388 42.6376 49.8278C41.6471 50.954 40.789 51.8461 40.063 52.5043C38.0242 54.3517 35.5924 55.342 32.7677 55.4749H32.285C31.1857 55.4422 30.116 55.2591 29.076 54.9256C28.1222 54.6192 27.1276 54.1055 26.2052 53.5929C15.3323 47.5491 6.61205 37.8939 1.30805 26.1283C0.556315 24.4613 0.334355 22.6373 0.299805 20.7073C0.299805 20.6999 0.299805 20.6925 0.299805 20.6851C0.448476 17.9885 1.2707 15.6062 2.76649 13.5381C3.62606 12.3492 4.9128 11.1034 5.99956 9.95015C6.72407 9.18018 8.20555 9.15901 9.0358 9.60361C9.29336 9.74103 9.60885 10.0081 9.98227 10.4048C12.553 13.1385 15.1226 15.8729 17.6912 18.6081C18.7727 19.7591 18.7078 21.669 17.6682 22.8156C17.2061 23.3266 16.2617 24.3336 14.835 25.8364C14.2738 26.4277 13.9374 26.8641 13.8257 27.1456C13.5856 27.7503 13.6624 28.3862 14.0561 29.0533C14.5084 29.8199 15.0776 30.6901 15.7637 31.664C16.3961 32.5599 15.2255 33.7221 14.41 33.0992C14.329 33.0368 14.1681 32.8407 13.9273 32.5109C13.4589 31.869 13.0154 31.2083 12.5966 30.5286C12.1897 29.8682 11.9377 29.3251 11.8407 28.8995C11.5213 27.5022 11.937 25.9857 12.8814 24.9616C13.8732 23.8853 14.8696 22.8137 15.8705 21.747C16.4662 21.1118 16.8316 20.6338 16.1207 19.8895C14.7059 18.4082 12.2249 15.767 8.67774 11.9659C8.18775 11.441 7.74802 11.1023 7.15962 11.6906C6.73943 12.1111 6.08611 12.7979 5.19967 13.7509C2.24719 16.9277 1.41484 21.5887 3.30568 25.6726C7.98673 35.779 15.1837 44.2052 24.2139 49.9983C24.5664 50.2248 24.929 50.4455 25.3017 50.6602Z" fill="#3B3B58"/>
<path d="M36.4834 10.3669C37.513 10.3736 38.5477 10.3773 39.5877 10.378C39.7329 10.3788 39.9046 10.4828 40.1028 10.69C40.3248 11.2278 40.255 11.6167 39.8934 11.8567C39.7476 11.954 39.534 12.0026 39.2527 12.0026C36.8195 12.0012 34.3867 12.0015 31.9542 12.0038C31.6952 12.0045 31.5022 11.97 31.3752 11.9001C30.9397 11.6606 30.8433 11.0354 31.1669 10.6577C31.3309 10.4661 31.5727 10.371 31.8924 10.3725C33.4175 10.3791 34.9479 10.3773 36.4834 10.3669Z" fill="#3B3B58"/>
<path d="M48.73 13.6507H31.7396C31.3192 13.6507 30.9784 14.0133 30.9784 14.4607V14.4786C30.9784 14.926 31.3192 15.2886 31.7396 15.2886H48.73C49.1503 15.2886 49.4911 14.926 49.4911 14.4786V14.4607C49.4911 14.0133 49.1503 13.6507 48.73 13.6507Z" fill="#3B3B58"/>
<path d="M48.7289 16.9378H31.7385C31.3181 16.9378 30.9774 17.3004 30.9774 17.7478V17.7657C30.9774 18.2131 31.3181 18.5757 31.7385 18.5757H48.7289C49.1493 18.5757 49.4901 18.2131 49.4901 17.7657V17.7478C49.4901 17.3004 49.1493 16.9378 48.7289 16.9378Z" fill="#3B3B58"/>
<path d="M17.8168 36.8576C18.3598 36.8576 18.7999 36.3892 18.7999 35.8113C18.7999 35.2335 18.3598 34.765 17.8168 34.765C17.2739 34.765 16.8337 35.2335 16.8337 35.8113C16.8337 36.3892 17.2739 36.8576 17.8168 36.8576Z" fill="#3B3B58"/>
<path d="M41.6744 47.4889C41.599 47.6345 41.5484 47.7812 41.5225 47.9291C41.4775 48.0126 41.4493 48.1118 41.3822 48.1831C40.7659 48.8487 40.1479 49.5125 39.528 50.1743C36.5295 53.379 32.0934 54.2882 28.272 52.3394C27.2529 51.8201 26.2628 51.2604 25.3017 50.6602C23.8527 48.7403 23.949 46.2565 24.9394 44.1673C25.0923 43.8449 25.2577 43.518 25.4357 43.1867C26.7716 43.443 27.9149 43.053 28.8844 42.0914C30.0466 40.9381 31.1564 39.7258 32.2777 38.5291C32.7286 38.0484 33.1886 38.0566 33.6576 38.5536C36.7092 41.7894 39.2939 44.545 41.4116 46.8204C41.5993 47.0224 41.6869 47.2453 41.6744 47.4889Z" fill="#EE5E7F"/>
</svg>
