<svg width="56" height="56" viewBox="0 0 56 56" fill="none" xmlns="http://www.w3.org/2000/svg">
<path d="M13.0101 17.5009H18.5349C20.0672 17.5009 21.3009 18.7345 21.3009 20.2669V31.3309C21.3009 32.8632 20.0672 34.0969 18.5349 34.0969H13.0101C11.4778 34.0969 10.2441 32.8632 10.2441 31.3309V20.2669C10.2441 18.7345 11.4778 17.5009 13.0101 17.5009Z" fill="#EE5E7F"/>
<path opacity="0.99" d="M48.0145 8.30603C49.5493 8.30603 50.7849 9.54161 50.7849 11.0764V40.4175C50.7849 41.9522 49.5493 43.1878 48.0145 43.1878C46.4797 43.1878 45.2441 41.9522 45.2441 40.4175V11.0764C45.2441 9.54161 46.4797 8.30603 48.0145 8.30603Z" fill="#EE5E7F"/>
<path d="M48.0174 7.45483C46.0749 7.45483 44.489 9.00519 44.4099 10.9291C39.7444 13.2579 31.7069 17.6832 21.9516 19.1189C21.4667 17.6904 20.1249 16.6494 18.5373 16.6494H13.0136C11.1911 16.6494 9.68619 18.0174 9.44272 19.7754C6.22348 19.7851 3.86231 22.5399 3.8623 25.8007C3.86231 29.0661 6.21134 31.8191 9.44272 31.821C9.68691 33.5789 11.1917 34.9503 13.0136 34.9503H18.5373C18.7257 34.9503 18.9102 34.9319 19.0906 34.9037L21.8133 44.4715C22.1408 45.6221 21.496 46.78 20.3453 47.1076C19.1947 47.4352 18.0368 46.7903 17.7092 45.6396L15.2381 36.9565C15.1089 36.504 14.6377 36.2416 14.185 36.37C13.731 36.4985 13.4675 36.971 13.5968 37.4248L16.0696 46.1062C16.6479 48.1374 18.7804 49.3256 20.8118 48.7472C22.8431 48.1689 24.0313 46.0364 23.4529 44.005L22.2965 39.9409C23.5054 39.6856 24.4586 39.2755 25.1742 38.7228C26.0733 38.0283 26.5813 37.1198 26.7905 36.2267C27.0278 35.2135 26.9193 34.2523 26.7222 33.4373C34.3213 35.3508 40.5426 38.7367 44.4215 40.6724C44.5555 42.545 46.1119 44.0383 48.0174 44.0383C50.01 44.0383 51.6383 42.4101 51.6383 40.4174V21.48C51.6365 21.0115 51.257 20.632 50.7884 20.6302C50.3166 20.6277 49.9321 21.0082 49.9303 21.48V40.4175C49.9303 41.4944 49.0943 42.332 48.0174 42.332C46.9405 42.332 46.1028 41.4944 46.1028 40.4175V11.0757C46.1028 9.9988 46.9405 9.15446 48.0174 9.15446C49.0943 9.15446 49.9303 9.9988 49.9303 11.0757V18.0658C49.9277 18.5409 50.3133 18.9267 50.7884 18.9239C51.2603 18.9222 51.641 18.5376 51.6383 18.0658V11.0757C51.6383 9.08303 50.01 7.45484 48.0174 7.45484L48.0174 7.45483ZM44.3932 12.8153V38.7795C39.7204 36.4172 31.9143 32.2602 22.1582 30.8263V20.7685C31.9143 19.3346 39.7204 15.1776 44.3932 12.8153ZM13.0136 18.3507H18.5373C19.6004 18.3507 20.431 19.1739 20.4486 20.232V31.3628C20.4312 32.4208 19.6004 33.244 18.5373 33.244H13.0136C11.9391 33.244 11.099 32.404 11.099 31.3295V20.2653C11.099 19.1908 11.9391 18.3507 13.0136 18.3507ZM9.39273 21.4717V30.1131C7.19579 30.0915 5.56859 28.2313 5.56859 25.8007C5.56859 23.3583 7.18522 21.4755 9.39273 21.4717ZM21.9466 32.4925C22.905 32.6336 23.8512 32.7967 24.7776 32.9924C25.0562 33.7451 25.3588 34.8566 25.1292 35.8368C24.9956 36.407 24.7226 36.9145 24.1311 37.3714C23.6529 37.7408 22.8556 38.0445 21.8183 38.2579C21.4353 36.9179 21.0534 35.5776 20.6719 34.2371C21.2551 33.8016 21.7047 33.1949 21.9466 32.4925Z" fill="#424241"/>
<path d="M13.2465 24.9438C13.1339 24.9434 13.0223 24.9652 12.9182 25.0081C12.8141 25.051 12.7195 25.1141 12.6399 25.1937C12.5602 25.2733 12.4972 25.3679 12.4543 25.472C12.4114 25.5761 12.3896 25.6877 12.39 25.8003C12.3904 25.9124 12.4128 26.0233 12.4561 26.1267C12.4994 26.2301 12.5626 26.3239 12.6421 26.4029C12.7216 26.4818 12.816 26.5443 12.9197 26.5868C13.0234 26.6293 13.1344 26.651 13.2465 26.6505H18.3351C18.4472 26.651 18.5583 26.6293 18.662 26.5868C18.7657 26.5443 18.86 26.4818 18.9395 26.4029C19.0191 26.3239 19.0823 26.2301 19.1255 26.1267C19.1688 26.0233 19.1912 25.9124 19.1916 25.8003C19.1921 25.6877 19.1702 25.5761 19.1273 25.472C19.0844 25.3679 19.0214 25.2733 18.9417 25.1937C18.8621 25.1141 18.7675 25.051 18.6634 25.0081C18.5593 24.9652 18.4477 24.9434 18.3351 24.9438H13.2465ZM13.2276 20.6613C13.1155 20.6609 13.0045 20.6825 12.9008 20.725C12.7971 20.7675 12.7027 20.83 12.6232 20.909C12.5437 20.9879 12.4805 21.0818 12.4372 21.1852C12.394 21.2886 12.3715 21.3995 12.3711 21.5115C12.3707 21.6241 12.3925 21.7357 12.4354 21.8398C12.4783 21.9439 12.5414 22.0385 12.621 22.1181C12.7006 22.1978 12.7952 22.2608 12.8993 22.3037C13.0034 22.3466 13.115 22.3685 13.2276 22.368H18.3225C18.4346 22.3676 18.5455 22.3452 18.6489 22.3019C18.7523 22.2587 18.8461 22.1955 18.9251 22.1159C19.004 22.0364 19.0665 21.9421 19.109 21.8384C19.1515 21.7347 19.1732 21.6236 19.1727 21.5115C19.1719 21.2863 19.0821 21.0705 18.9229 20.9112C18.7636 20.7519 18.5478 20.6621 18.3225 20.6613H13.2276ZM13.2276 29.2326C13.1155 29.2322 13.0045 29.2538 12.9008 29.2963C12.7971 29.3388 12.7027 29.4013 12.6232 29.4803C12.5437 29.5592 12.4805 29.6531 12.4372 29.7565C12.394 29.8599 12.3715 29.9708 12.3711 30.0828C12.3707 30.1954 12.3925 30.307 12.4354 30.4111C12.4783 30.5152 12.5414 30.6098 12.621 30.6895C12.7006 30.7691 12.7952 30.8322 12.8993 30.875C13.0034 30.9179 13.115 30.9398 13.2276 30.9393H18.3225C18.4346 30.9389 18.5455 30.9165 18.6489 30.8732C18.7523 30.83 18.8461 30.7668 18.9251 30.6872C19.004 30.6077 19.0665 30.5134 19.109 30.4097C19.1515 30.306 19.1732 30.1949 19.1727 30.0828C19.1719 29.8576 19.0821 29.6418 18.9229 29.4825C18.7636 29.3232 18.5478 29.2334 18.3225 29.2326H13.2276Z" fill="#424241"/>
</svg>
